<svg width="224" height="40" viewBox="0 0 224 40" fill="none" xmlns="http://www.w3.org/2000/svg">
<path d="M210.975 40C207.064 40 204.053 38.908 201.939 36.7239C199.825 34.5046 198.769 31.4223 198.769 27.4769V13.2101H205.109V28.3752C205.109 30.1365 205.655 31.5456 206.747 32.6024C207.839 33.6592 209.248 34.1876 210.975 34.1876C212.701 34.1876 214.11 33.6592 215.202 32.6024C216.294 31.5456 216.84 30.1365 216.84 28.3752V13.2101H223.181V27.4769C223.181 31.4223 222.124 34.5046 220.01 36.7239C217.897 38.908 214.885 40 210.975 40Z" fill="#00816E"/>
<path d="M181.069 39.6301V20.3964C181.069 18.2828 181.721 16.5567 183.024 15.2181C184.328 13.8794 186.248 13.2101 188.784 13.2101H196.71V19.0225H189.735C188.89 19.0225 188.291 19.2163 187.939 19.6038C187.586 19.9913 187.41 20.5021 187.41 21.1361V39.6301H181.069Z" fill="#00816E"/>
<path d="M172.556 16.3805C172.556 14.6296 173.975 13.2101 175.726 13.2101C177.477 13.2101 178.896 14.6296 178.896 16.3805V39.6301H172.556V16.3805Z" fill="#00816E"/>
<path d="M149.793 26.3672C149.793 27.3183 149.951 28.2694 150.269 29.2205C150.621 30.1364 151.132 30.9643 151.801 31.704C152.47 32.4438 153.298 33.0426 154.284 33.5006C155.306 33.9585 156.486 34.1875 157.825 34.1875C158.917 34.1875 159.868 33.9761 160.678 33.5534C161.488 33.0955 162.157 32.5142 162.686 31.8097C163.25 31.0699 163.672 30.2421 163.954 29.3262C164.236 28.3751 164.377 27.424 164.377 26.4729C164.412 25.1695 164.236 24.0422 163.848 23.0911C163.461 22.14 162.932 21.3474 162.263 20.7133C161.629 20.0792 160.889 19.6037 160.044 19.2866C159.198 18.9344 158.318 18.7582 157.402 18.7582C156.451 18.7582 155.517 18.9167 154.601 19.2338C153.721 19.5508 152.91 20.0264 152.171 20.6605C151.466 21.2945 150.885 22.0871 150.427 23.0383C150.004 23.9894 149.793 25.099 149.793 26.3672ZM170.453 25.2575V39.6828H164.113V38.2033C163.091 38.8726 161.964 39.3482 160.731 39.63C159.533 39.8766 158.335 39.9999 157.138 39.9999C154.848 39.9999 152.84 39.6124 151.114 38.8374C149.388 38.0624 147.961 37.0408 146.834 35.7727C145.707 34.5045 144.861 33.0602 144.298 31.4398C143.734 29.8194 143.452 28.1461 143.452 26.42C143.452 24.2007 143.857 22.2457 144.667 20.5548C145.513 18.8287 146.587 17.402 147.891 16.2747C149.229 15.1475 150.744 14.3021 152.435 13.7384C154.126 13.1396 155.834 12.8401 157.56 12.8401C159.216 12.8401 160.801 13.0867 162.316 13.5799C163.866 14.0379 165.24 14.7776 166.438 15.7992C167.67 16.7855 168.639 18.0713 169.344 19.6565C170.083 21.2065 170.453 23.0735 170.453 25.2575Z" fill="#00816E"/>
<path d="M115.993 12.8401C119.128 12.8401 121.594 13.7913 123.39 15.6935C125.222 13.7913 127.688 12.8401 130.788 12.8401C134.205 12.8401 136.812 13.9498 138.608 16.1691C140.44 18.3531 141.356 21.4178 141.356 25.3632V39.63H135.015V23.7252C135.015 21.9638 134.575 20.6781 133.694 19.8679C132.814 19.0577 131.845 18.6525 130.788 18.6525C129.696 18.6525 128.71 19.0577 127.829 19.8679C126.948 20.6781 126.508 21.9638 126.508 23.7252V39.63H120.22V23.7252C120.22 21.9638 119.78 20.6781 118.899 19.8679C118.018 19.0577 117.05 18.6525 115.993 18.6525C114.901 18.6525 113.915 19.0577 113.034 19.8679C112.153 20.6781 111.713 21.9638 111.713 23.7252V39.63H105.372V25.3632C105.372 21.4178 106.288 18.3531 108.12 16.1691C109.952 13.9498 112.576 12.8401 115.993 12.8401Z" fill="#00816E"/>
<path d="M82.5556 26.3672C82.5556 27.3183 82.7142 28.2694 83.0312 29.2205C83.3835 30.1364 83.8943 30.9643 84.5636 31.704C85.2329 32.4438 86.0607 33.0426 87.047 33.5006C88.0686 33.9585 89.2487 34.1875 90.5873 34.1875C91.6793 34.1875 92.6305 33.9761 93.4407 33.5534C94.2509 33.0955 94.9202 32.5142 95.4486 31.8097C96.0122 31.0699 96.4349 30.2421 96.7167 29.3262C96.9986 28.3751 97.1395 27.424 97.1395 26.4729C97.1747 25.1695 96.9986 24.0422 96.6111 23.0911C96.2236 22.14 95.6952 21.3474 95.0259 20.7133C94.3918 20.0792 93.652 19.6037 92.8066 19.2866C91.9611 18.9344 91.0805 18.7582 90.1646 18.7582C89.2135 18.7582 88.28 18.9167 87.3641 19.2338C86.4834 19.5508 85.6732 20.0264 84.9334 20.6605C84.2289 21.2945 83.6477 22.0871 83.1897 23.0383C82.767 23.9894 82.5556 25.099 82.5556 26.3672ZM103.216 25.2575V39.6828H96.8753V38.2033C95.8537 38.8726 94.7264 39.3482 93.4935 39.63C92.2958 39.8766 91.0981 39.9999 89.9004 39.9999C87.6107 39.9999 85.6027 39.6124 83.8766 38.8374C82.1505 38.0624 80.7239 37.0408 79.5966 35.7727C78.4693 34.5045 77.6239 33.0602 77.0603 31.4398C76.4967 29.8194 76.2148 28.1461 76.2148 26.42C76.2148 24.2007 76.62 22.2457 77.4302 20.5548C78.2756 18.8287 79.35 17.402 80.6534 16.2747C81.992 15.1475 83.5068 14.3021 85.1976 13.7384C86.8885 13.1396 88.597 12.8401 90.3231 12.8401C91.9788 12.8401 93.564 13.0867 95.0787 13.5799C96.6287 14.0379 98.0025 14.7776 99.2002 15.7992C100.433 16.7855 101.402 18.0713 102.106 19.6565C102.846 21.2065 103.216 23.0735 103.216 25.2575Z" fill="#00816E"/>
<path d="M55.6797 0H62.0205V22.8269L70.2635 13.21H77.714L68.5198 24.2535L79.5634 39.63H71.6374L64.3454 29.2733L62.0205 32.0739V39.6828H55.6797V0Z" fill="#00816E"/>
<path d="M32.8633 26.3672C32.8633 27.3183 33.0218 28.2694 33.3388 29.2205C33.6911 30.1364 34.2019 30.9643 34.8712 31.704C35.5405 32.4438 36.3683 33.0426 37.3547 33.5006C38.3762 33.9585 39.5563 34.1875 40.8949 34.1875C41.987 34.1875 42.9381 33.9761 43.7483 33.5534C44.5585 33.0955 45.2278 32.5142 45.7562 31.8097C46.3198 31.0699 46.7426 30.2421 47.0244 29.3262C47.3062 28.3751 47.4471 27.424 47.4471 26.4729C47.4823 25.1695 47.3062 24.0422 46.9187 23.0911C46.5312 22.14 46.0028 21.3474 45.3335 20.7133C44.6994 20.0792 43.9597 19.6037 43.1142 19.2866C42.2688 18.9344 41.3881 18.7582 40.4722 18.7582C39.5211 18.7582 38.5876 18.9167 37.6717 19.2338C36.791 19.5508 35.9808 20.0264 35.2411 20.6605C34.5365 21.2945 33.9553 22.0871 33.4973 23.0383C33.0746 23.9894 32.8633 25.099 32.8633 26.3672ZM53.5237 25.2575V39.6828H47.1829V38.2033C46.1613 38.8726 45.0341 39.3482 43.8011 39.63C42.6034 39.8766 41.4057 39.9999 40.208 39.9999C37.9183 39.9999 35.9104 39.6124 34.1843 38.8374C32.4582 38.0624 31.0315 37.0408 29.9042 35.7727C28.777 34.5045 27.9315 33.0602 27.3679 31.4398C26.8043 29.8194 26.5225 28.1461 26.5225 26.42C26.5225 24.2007 26.9276 22.2457 27.7378 20.5548C28.5832 18.8287 29.6576 17.402 30.961 16.2747C32.2996 15.1475 33.8144 14.3021 35.5053 13.7384C37.1961 13.1396 38.9046 12.8401 40.6307 12.8401C42.2864 12.8401 43.8716 13.0867 45.3863 13.5799C46.9363 14.0379 48.3101 14.7776 49.5078 15.7992C50.7408 16.7855 51.7095 18.0713 52.414 19.6565C53.1538 21.2065 53.5237 23.0735 53.5237 25.2575Z" fill="#00816E"/>
<path d="M12.206 12.8401C16.1162 12.8401 19.1281 13.9498 21.2417 16.1691C23.3553 18.3531 24.4121 21.4178 24.4121 25.3632V39.63H18.0713V24.4649C18.0713 22.7036 17.5253 21.2945 16.4332 20.2377C15.3412 19.1809 13.9321 18.6525 12.206 18.6525C10.4799 18.6525 9.07086 19.1809 7.97883 20.2377C6.88681 21.2945 6.34079 22.7036 6.34079 24.4649V39.63H0V25.3632C0 21.4178 1.0568 18.3531 3.1704 16.1691C5.284 13.9498 8.29587 12.8401 12.206 12.8401Z" fill="#00816E"/>
<path d="M178.855 1.26156C178.261 0.784728 177.568 0.443081 176.824 0.261262C176.08 0.0794431 175.304 0.0619855 174.553 0.210148C173.586 0.404679 172.697 0.867859 171.991 1.54451C171.285 2.22116 170.793 3.08277 170.571 4.02669C170.35 4.97061 170.41 5.95706 170.744 6.86853C171.078 7.77999 171.671 8.57806 172.454 9.16767C173.347 9.80981 174.108 10.6132 174.696 11.5349L175.096 12.1883C175.147 12.2713 175.219 12.34 175.304 12.3877C175.39 12.4353 175.487 12.4604 175.586 12.4604C175.685 12.4604 175.782 12.4353 175.867 12.3877C175.953 12.34 176.025 12.2713 176.076 12.1883L176.46 11.5607C176.971 10.6779 177.669 9.91241 178.505 9.3153C179.161 8.87207 179.704 8.2852 180.089 7.601C180.475 6.9168 180.693 6.15398 180.727 5.37273C180.761 4.59148 180.61 3.81318 180.285 3.09923C179.96 2.38528 179.471 1.75522 178.855 1.25876L178.855 1.26156ZM175.585 7.40895C175.133 7.40895 174.691 7.27725 174.315 7.03053C173.939 6.7838 173.646 6.43311 173.472 6.02281C173.299 5.61252 173.254 5.16104 173.342 4.72547C173.431 4.28991 173.648 3.88981 173.968 3.57578C174.288 3.26176 174.696 3.0479 175.139 2.96126C175.583 2.87462 176.043 2.91909 176.461 3.08904C176.878 3.25899 177.236 3.54679 177.487 3.91605C177.738 4.2853 177.872 4.71943 177.872 5.16353C177.872 5.75905 177.631 6.33018 177.203 6.75128C176.774 7.17238 176.192 7.40895 175.585 7.40895Z" fill="#00816E"/>
</svg>
